<?xml version="1.0" standalone="no"?>
<!DOCTYPE svg PUBLIC "-//W3C//DTD SVG 20010904//EN"
 "http://www.w3.org/TR/2001/REC-SVG-20010904/DTD/svg10.dtd">
<svg version="1.0" xmlns="http://www.w3.org/2000/svg"
 width="700.000000pt" height="700.000000pt" viewBox="0 0 700.000000 700.000000"
 preserveAspectRatio="xMidYMid meet">
<metadata>
Created by potrace 1.11, written by Peter Selinger 2001-2013
</metadata>
<g transform="translate(0.000000,700.000000) scale(0.100000,-0.100000)"
fill="#000000" stroke="none">
<path d="M2819 6996 c-2 -2 -60 -6 -129 -10 -154 -7 -246 -14 -285 -21 -16 -2
-48 -7 -70 -10 -22 -3 -87 -15 -144 -26 -57 -12 -116 -23 -130 -25 -137 -24
-554 -137 -756 -206 -273 -92 -419 -161 -498 -237 -112 -107 -123 -226 -25
-279 53 -29 105 -81 151 -150 195 -296 444 -953 531 -1397 18 -94 21 -113 36
-225 27 -209 91 -426 168 -569 77 -144 199 -281 317 -356 143 -92 404 -187
549 -201 28 -2 60 -7 71 -9 35 -7 64 -73 70 -156 6 -91 16 -126 54 -193 53
-96 120 -361 147 -586 3 -25 8 -58 10 -75 3 -16 6 -79 9 -140 3 -92 0 -119
-17 -165 -61 -167 -79 -235 -73 -280 4 -25 8 -56 9 -70 9 -80 -152 -382 -266
-499 -51 -52 -28 -41 -518 -238 -610 -245 -800 -345 -800 -420 0 -61 76 -130
225 -203 87 -42 295 -119 366 -134 13 -3 60 -14 104 -25 44 -11 94 -22 110
-24 17 -3 54 -10 82 -16 29 -6 76 -13 105 -16 29 -3 69 -7 88 -10 197 -27 840
-27 1126 0 94 9 222 24 254 31 243 48 247 49 392 59 145 10 258 13 592 15 398
3 458 14 472 86 12 62 33 69 234 70 96 1 193 4 215 8 22 4 53 9 70 12 47 8
115 42 115 57 0 33 -55 64 -117 66 -39 2 -52 25 -39 71 9 37 9 43 -9 56 -26
20 -107 42 -175 49 -30 3 -66 8 -80 10 -36 5 -113 13 -200 20 -41 4 -86 8
-100 10 -14 2 -56 6 -95 10 -100 9 -210 24 -395 56 -180 31 -254 46 -440 90
-359 84 -401 114 -446 311 -23 103 -81 237 -148 347 -71 116 -86 153 -86 205
0 23 -16 91 -36 151 -38 118 -47 177 -34 228 4 18 15 66 25 107 9 41 41 167
70 280 52 195 117 475 129 550 16 101 39 207 53 242 22 56 82 102 166 128 215
68 422 211 658 456 164 169 257 299 366 514 44 85 91 173 105 195 31 49 76 95
93 95 19 0 26 28 20 74 -8 52 10 104 77 221 48 85 350 545 508 775 40 58 110
159 155 225 130 188 223 286 356 371 73 46 115 94 123 137 28 156 -283 329
-784 435 -124 27 -188 37 -355 57 -27 3 -68 8 -90 10 -22 3 -69 7 -105 10 -36
3 -84 8 -107 10 -23 3 -77 8 -120 10 -43 3 -114 8 -158 11 -93 7 -156 10 -350
19 -77 4 -169 9 -205 11 -82 5 -1186 14 -1191 10z m1101 -220 c189 -8 302 -14
550 -31 152 -10 456 -38 555 -50 17 -2 53 -7 80 -10 28 -3 61 -8 75 -10 14 -3
46 -6 71 -9 25 -3 88 -12 140 -21 52 -10 108 -19 124 -22 17 -2 77 -15 135
-29 187 -44 287 -86 311 -132 13 -23 11 -26 -18 -51 -17 -14 -69 -41 -115 -58
-85 -33 -305 -97 -373 -107 -20 -4 -40 -8 -44 -10 -3 -2 -58 -14 -121 -25 -63
-12 -126 -23 -140 -26 -14 -3 -77 -12 -140 -21 -63 -8 -126 -17 -140 -19 -51
-8 -107 -14 -170 -20 -36 -3 -82 -8 -102 -10 -86 -11 -116 -14 -178 -20 -36
-3 -81 -8 -100 -10 -56 -6 -238 -22 -345 -30 -446 -32 -772 -17 -1290 59 -11
2 -42 6 -70 10 -27 4 -57 8 -65 10 -8 1 -37 6 -65 10 -218 34 -315 78 -315
144 0 30 -33 60 -70 64 -71 9 -169 -26 -275 -96 -48 -32 -68 -40 -105 -39 -66
1 -170 56 -170 90 0 27 58 45 310 97 211 43 292 67 360 108 42 25 56 39 58 60
2 18 -3 30 -16 37 -19 10 -167 8 -212 -3 -14 -3 -36 -8 -50 -10 -78 -15 -221
-55 -410 -115 -205 -65 -333 -90 -422 -82 -35 2 -17 30 35 54 52 25 195 76
229 82 10 2 22 6 26 9 17 10 410 107 553 136 175 35 387 66 509 76 47 3 101 8
120 9 19 2 114 7 210 11 96 3 176 7 177 8 6 5 744 -2 893 -8z m-2528 -680
c123 -25 241 -47 263 -51 23 -3 52 -8 65 -10 14 -3 45 -8 70 -11 25 -3 54 -8
65 -10 19 -4 265 -38 345 -48 19 -3 82 -10 140 -16 58 -6 121 -13 140 -15 19
-2 64 -7 100 -10 36 -3 90 -7 120 -10 30 -3 89 -7 130 -10 41 -3 100 -7 131
-9 366 -29 1208 -29 1519 -1 25 2 77 7 115 10 73 6 90 8 220 24 133 17 168 22
225 32 204 36 287 50 380 63 210 29 200 29 200 13 0 -26 -285 -440 -402 -584
-12 -15 -52 -58 -88 -94 -90 -90 -158 -122 -330 -153 -198 -36 -345 -78 -383
-109 -37 -30 -39 -66 -5 -86 27 -15 59 -13 193 16 28 6 29 5 15 -12 -21 -26
-145 -116 -206 -150 -43 -24 -57 -39 -82 -89 -40 -80 -64 -159 -60 -193 3 -27
5 -28 58 -28 63 1 92 5 248 35 63 12 115 20 118 18 2 -3 -16 -51 -40 -109
-102 -247 -138 -285 -326 -349 -52 -18 -107 -39 -121 -46 -31 -16 -79 -70 -79
-89 0 -22 36 -36 98 -40 32 -2 63 -4 70 -4 20 -2 14 -24 -17 -56 -81 -85 -197
-160 -479 -307 l-132 -70 -140 106 c-165 125 -308 200 -380 200 -73 0 -190
-68 -322 -185 -93 -83 -106 -93 -155 -119 -40 -20 -115 -28 -168 -16 -123 27
-241 74 -332 132 -73 46 -217 191 -268 268 -116 178 -181 374 -210 626 -14
119 -25 204 -31 235 -3 11 -7 38 -10 60 -3 22 -14 77 -25 123 -10 45 -22 106
-25 136 -10 80 0 83 181 40 50 -11 169 -25 265 -31 199 -12 812 -4 974 12 23
2 91 7 151 10 61 3 124 8 140 10 17 2 71 6 120 9 50 4 104 8 120 10 17 2 64 7
105 10 69 6 142 14 198 21 12 2 50 6 85 10 34 3 73 8 87 10 84 12 110 15 150
20 52 7 94 13 130 20 14 2 45 7 70 10 61 8 291 53 365 71 164 41 257 94 271
156 7 35 -22 71 -76 95 -42 18 -160 49 -215 56 -22 3 -69 10 -105 16 -36 5
-101 13 -145 17 -44 3 -87 7 -95 9 -8 2 -69 6 -135 10 -66 4 -136 8 -155 10
-285 26 -1154 26 -1310 0 -14 -2 -55 -7 -92 -10 -37 -3 -75 -7 -85 -9 -10 -2
-40 -7 -68 -10 -79 -10 -359 -64 -428 -82 -34 -9 -71 -18 -82 -20 -34 -6 -315
-84 -364 -101 -142 -48 -175 -15 -373 386 -72 146 -133 269 -135 274 -6 11 1
10 239 -37z m2585 -550 c214 -15 363 -43 363 -67 0 -20 -92 -53 -175 -64 -22
-3 -49 -7 -60 -9 -11 -2 -56 -7 -100 -11 -44 -4 -93 -9 -110 -10 -66 -7 -270
-20 -455 -30 -69 -4 -150 -8 -180 -10 -50 -3 -261 -12 -470 -21 -222 -9 -777
-12 -795 -5 -18 7 -17 10 14 26 59 30 235 79 361 100 19 3 71 12 115 20 44 8
103 17 130 20 28 4 61 8 75 10 14 2 48 6 75 10 28 3 66 8 85 10 19 2 67 7 105
10 39 4 84 8 100 10 17 2 95 7 175 11 80 3 146 7 148 9 5 4 518 -3 599 -9z
m934 -512 c17 -16 17 -18 0 -64 -29 -76 -98 -168 -155 -205 -25 -16 -29 -17
-43 -3 -25 26 -7 73 50 128 l51 49 -47 44 c-26 23 -47 46 -47 49 0 11 31 16
104 17 51 1 74 -3 87 -15z m-1637 -1438 c58 -20 112 -55 127 -83 16 -29 -10
-69 -56 -89 -112 -46 -345 31 -345 115 0 80 128 106 274 57z m182 -378 c19
-20 -41 -56 -106 -65 -54 -6 -91 -24 -100 -47 -16 -43 31 -81 104 -85 52 -3
76 -17 76 -45 0 -37 -65 -85 -136 -100 -17 -4 -46 -19 -64 -34 -31 -26 -32
-29 -22 -66 13 -45 5 -67 -39 -108 -36 -34 -36 -53 0 -86 15 -15 49 -46 75
-70 51 -49 60 -86 26 -117 -47 -42 -63 -145 -45 -293 13 -110 -14 -202 -51
-171 -25 20 -56 139 -78 299 -27 187 -38 266 -41 270 -2 3 -6 22 -9 42 -16
100 -52 242 -106 413 -39 125 -60 199 -60 216 0 20 64 38 160 46 36 3 67 7 69
8 7 7 340 0 347 -7z m-259 -1555 c15 -23 18 -51 18 -198 0 -221 -2 -217 127
-275 58 -26 82 -61 84 -125 4 -97 -86 -221 -202 -280 -53 -27 -69 -30 -154
-30 -87 0 -101 3 -160 32 -80 39 -146 94 -152 127 -7 37 24 115 93 233 111
190 208 406 204 453 -2 22 22 68 42 79 35 20 81 13 100 -16z m-642 -907 c28
-13 78 -51 112 -84 52 -52 72 -64 130 -81 92 -27 154 -32 468 -36 323 -5 629
-14 716 -20 90 -7 189 -16 216 -21 13 -2 49 -8 81 -13 79 -14 145 -23 160 -24
60 -2 -283 -120 -387 -133 -20 -2 -61 -8 -91 -14 -30 -5 -86 -12 -125 -15 -38
-4 -80 -8 -91 -10 -22 -3 -149 -14 -239 -20 -371 -25 -1185 -26 -1345 -1 -14
2 -47 7 -75 10 -61 8 -98 14 -147 27 -21 5 -57 14 -80 19 -59 15 -199 84 -222
109 -19 21 -19 21 0 43 21 23 163 92 314 153 52 20 109 43 125 50 196 82 386
106 480 61z"/>
<path d="M3340 5030 c-188 -51 -388 -194 -498 -357 -56 -81 -176 -325 -164
-332 5 -3 61 -54 124 -113 257 -241 302 -259 557 -234 314 32 545 234 556 486
6 153 -52 287 -180 415 -149 148 -235 178 -395 135z m166 -236 c90 -30 158
-85 173 -140 17 -63 -31 -102 -133 -109 -135 -9 -192 -47 -256 -170 -54 -106
-123 -170 -145 -135 -4 6 10 40 30 76 39 69 63 172 59 249 -10 193 -5 231 29
246 31 13 186 3 243 -17z"/>
<path d="M4414 4430 c-107 -37 -197 -97 -212 -140 -9 -26 -8 -32 11 -45 29
-20 72 -19 150 5 99 31 147 79 147 149 0 49 -25 57 -96 31z"/>
</g>
</svg>
